<?xml version="1.0" encoding="UTF-8"?>
<!DOCTYPE svg PUBLIC "-//W3C//DTD SVG 1.1//EN" "http://www.w3.org/Graphics/SVG/1.1/DTD/svg11.dtd">
<!-- Creator: CorelDRAW -->
<svg xmlns="http://www.w3.org/2000/svg" xml:space="preserve" width="32.9405mm" height="18.5611mm" version="1.1" style="shape-rendering:geometricPrecision; text-rendering:geometricPrecision; image-rendering:optimizeQuality; fill-rule:evenodd; clip-rule:evenodd"
viewBox="0 0 1064.78 599.97"
 xmlns:xlink="http://www.w3.org/1999/xlink"
 xmlns:xodm="http://www.corel.com/coreldraw/odm/2003">
 <defs>
  <style type="text/css">
   <![CDATA[
    .fil0 {fill:#0383EE}
   ]]>
  </style>
 </defs>
 <g id="Capa_x0020_1">
  <metadata id="CorelCorpID_0Corel-Layer"/>
  <path class="fil0" d="M415.48 596.73c4.59,-2.95 8.54,-14.15 12.08,-25.88l48.81 -161.85c3.15,-10.44 7.14,-19.58 9.32,-21.05 4.7,5.8 70,160.88 79.37,183.62 10.83,26.29 7.85,28.72 39.35,28.37l116.22 -1.27c21.58,0.28 24.82,2.5 34.12,-15.67l73.16 -128.98c5.85,1.88 3.6,-3.93 11.9,16.66l59.2 126.36c4.94,2.82 159.55,3.99 164.49,-0.71 3.8,-3.62 -1.6,-15.78 -7.31,-28.49l-122.09 -272.04c-4.04,-9.01 -8.21,-14.71 -10.28,-15.38 -4.76,-1.55 -151.2,-1.43 -161.54,0.18 -2.95,2.48 -7.52,8.44 -12.04,16.27l-71.54 123.64 -118.95 -270.79c-3.78,-8.62 -8.41,-15.45 -19.23,-15.45l-141.23 0c-15.78,0.03 -18.46,6.44 -21.62,16.8l-57.73 189.34 -141.58 -321.95c-4.31,-9.81 -8.64,-16.87 -11.19,-17.65l-146.62 -0.79c-32.66,-0.21 -20.32,9.01 -4.39,49.2 73.18,184.61 136.06,320.79 213.32,503.95 24.24,54.52 7.91,45.57 68.39,45.57 18.37,-0 108.44,2.97 117.63,-1.99z"/>
 </g>
</svg>
