<?xml version="1.0" encoding="UTF-8"?>
<svg xmlns="http://www.w3.org/2000/svg" xml:space="preserve" width="127.619mm" height="19.0848mm" version="1.1" style="shape-rendering:geometricPrecision; text-rendering:geometricPrecision; image-rendering:optimizeQuality; fill-rule:evenodd; clip-rule:evenodd"
viewBox="0 0 15982 2390.02"
 xmlns:xlink="http://www.w3.org/1999/xlink">
 <defs>
  <style type="text/css">
   <![CDATA[
    .fil0 {fill:#0383EE}
    .fil1 {fill:#E7EBF1}
    .fil2 {fill:#0a1018}
   ]]>
  </style>
 </defs>
 <g>
   <path class="fil0" d="M1609.67 2322.38c17.78,-11.45 33.1,-54.81 46.81,-100.27l189.1 -627.05c12.2,-40.45 27.68,-75.85 36.1,-81.55 18.2,22.48 271.2,623.28 307.49,711.39 41.94,101.85 30.43,111.26 152.43,109.93l450.28 -4.92c83.62,1.1 96.17,9.68 132.21,-60.71l283.44 -499.7c22.67,7.3 13.96,-15.23 46.11,64.56l229.35 489.53c19.15,10.93 618.14,15.44 637.27,-2.76 14.74,-14.01 -6.2,-61.13 -28.3,-110.39l-473.01 -1053.94c-15.65,-34.91 -31.82,-56.99 -39.82,-59.6 -18.46,-6 -585.8,-5.54 -625.85,0.69 -11.43,9.61 -29.12,32.71 -46.66,63.03l-277.18 479.02 -460.85 -1049.12c-14.65,-33.4 -32.57,-59.87 -74.51,-59.87l-547.15 0c-61.15,0.11 -71.53,24.95 -83.78,65.1l-223.66 733.54 -548.51 -1247.32c-16.71,-38.02 -33.47,-65.37 -43.36,-68.38l-568.05 -3.07c-126.52,-0.8 -78.72,34.9 -17.02,190.6 283.5,715.22 527.11,1242.82 826.44,1952.41 93.92,211.22 30.64,176.56 264.95,176.54 71.16,-0.01 420.11,11.5 455.73,-7.7z"/>
   <path class="fil1" d="M4902.27 2335.22l426.48 -1.77 409.65 -1062.75 427.64 1061.93 435.17 1.59c55.9,-133.53 109.59,-293.54 160.3,-432.93l330.17 -864.44c27.68,-74.65 52.56,-145.14 81.15,-220.47 14.11,-37.19 25.38,-70.24 39.19,-105.4 5.12,-13.04 20.53,-47.56 23.11,-57.19l-1.47 -60.5 -460.84 -4.37c-82.39,127.22 -321.7,924.59 -386.77,1053.69 -17.98,35.67 -8.48,18.3 -21.43,30.61l-384.46 -991.3c-44.13,-115.84 -11.16,-95.68 -258.48,-95.43 -238.93,0.24 -151.53,-74.35 -375.54,503.63 -40.56,104.66 -185.32,527.44 -228.02,583.29l-364.67 -1010.36c-32.11,-105.71 -24.86,-76.42 -278.26,-76.44 -299.29,-0.04 -271.77,-68.34 -114.51,349.58 91.96,244.4 504.56,1266.19 541.61,1399.01z"/>
   <path class="fil1" d="M8055.57 979.12c295.56,-62.82 528.1,158.17 577.74,399.15 60.76,294.92 -162.18,546.45 -400.37,585.48 -653,107.02 -852.74,-841.11 -177.38,-984.63zm-10.54 -428.73c-484.78,35.09 -911.22,474.06 -854.48,1002.56 84.33,785.54 978.59,1059.29 1550.87,643.85 46.82,-33.99 79.87,-78.38 120.9,-115.83 164.87,-150.44 256.52,-466.74 226.78,-708.79 -61.46,-500.15 -482.28,-862.47 -1044.07,-821.8z"/>
   <path class="fil1" d="M10684.91 1569.48c-54.16,249.37 -288.63,459.15 -605.27,387.88 -237.93,-53.55 -438.57,-300.84 -369.56,-596.24 152.64,-653.38 1110.67,-417.02 974.83,208.36zm-596.44 -1015.58c-513.58,55.06 -881.99,455.07 -838.25,1027.53 36.64,479.6 521.67,869.48 1070.94,800.01 227.41,-28.78 471.6,-144.34 612.91,-319.62 232.15,-287.95 292.05,-694.2 89.72,-1047.74 -28.28,-49.39 -64.41,-105.14 -95.54,-141.06l-120.13 -115.93c-172.71,-138.63 -431.65,-234.07 -719.64,-203.19z"/>
   <path class="fil1" d="M12568.41 427.94l48.36 1907.18 170.09 2.44c72.6,-0.53 150.89,7.75 221.05,-8.98 5.45,-102.55 5.81,-677.02 22.29,-724.8 79.26,-17.53 87.71,-9.25 126.9,41.49l426.48 531.22c148.05,180.3 82.38,174.03 541.65,160.45l99.6 -6.32c10.91,-69.15 -32.9,-92.93 -68.18,-136.47l-614.81 -749.19c-28.18,-29.4 -34.8,-31.67 -49.39,-76.77 63.08,-47.3 132.39,-122.95 182.48,-183.49 36.34,-43.94 43.15,-52.08 90.48,-93.2 35.74,-31.03 62.06,-63.92 94.46,-102.35l334.33 -360.53c11.11,-30.66 10.12,-6.95 0.1,-33.61 -45.55,-16.92 -401.33,-13.25 -476.62,-8.53 -72.62,4.57 -81.69,38.3 -117.33,77.66 -34.78,38.41 -60.5,58.16 -99.05,97.63 -82.16,84.19 -431.4,502.99 -482.94,499.71 -0.84,-278.29 7.73,-969.66 -6.74,-1251.63l-277.23 -3.79c-198.13,0.93 -166.28,-92.4 -165.98,421.88z"/>
   <path class="fil1" d="M14960.46 976.27c629.64,-115.68 807.56,864.22 176.89,985.09 -655.24,125.57 -844.55,-862.41 -176.89,-985.09zm-18.94 -424.25c-499.12,43.05 -896.56,461.93 -845,1016.07 45.2,485.67 482.17,874.51 1043.94,816.12 498.43,-51.81 899.45,-454.09 834.64,-1019.8 -56.17,-490.27 -476.63,-860.43 -1033.59,-812.39z"/>
   <path class="fil1" d="M11308.93 2333.56c86.07,8.52 357.81,13.24 434.38,-5.11 35.54,-146.4 -15.6,-776.32 14.85,-969.82 19.41,-123.29 105.45,-246.42 190.48,-294.72 148.55,-84.39 373.94,-59.57 413.58,-84.92 10.33,-32.3 15.44,-361.41 3.43,-385 -41.79,-82.05 -636.84,-35.74 -879.88,296.09 -138.53,189.15 -182.43,348.16 -182.51,626.94 -0.06,221.41 -22,621.53 5.67,816.55z"/>
   <path class="fil2" d="M8055.57 979.12c-675.36,143.53 -475.62,1091.66 177.38,984.63 238.19,-39.03 461.13,-290.56 400.37,-585.48 -49.64,-240.98 -282.18,-461.97 -577.74,-399.15z"/>
   <path class="fil2" d="M10684.91 1569.48c135.84,-625.38 -822.18,-861.74 -974.83,-208.36 -69.02,295.4 131.63,542.69 369.56,596.24 316.64,71.27 551.11,-138.51 605.27,-387.88z"/>
   <path class="fil2" d="M14960.46 976.27c-667.66,122.68 -478.35,1110.66 176.89,985.09 630.67,-120.86 452.75,-1100.76 -176.89,-985.09z"/>
 </g>
</svg>
